# xmcd
#
# Track frame offsets:
# 150
# 14219
# 29957
# 44955
# 58287
# 70537
# 85344
# 98909
# 110798
# 125539
# 141000
# 156564
# 170867
# 186376
# 199478
# 214171
# 226900
# 240469
# 253743
# 266165
# 281114
# 294925
# 310535
# 326066
#
# Disc length: 4649 seconds
#
#
# Revision: 1
# Processed by: cddbd v1.5.1PL2 Copyright (c) Steve Scherf et al.
# Submitted via: FreeRIP 2.945 
#
DISCID=8e122718
DTITLE=Hoagy Carmichael - THE KEY CUTS CDB 1929-1932
DYEAR=2004
DGENRE=Jazz
TTITLE0=Walkin' The Dog
TTITLE1=What Kind O' Man Is You?
TTITLE2=Rockin' Chair
TTITLE3=Manhattan Rag
TTITLE4=Manhattan Rag
TTITLE5=What Kind O' Man Is You?
TTITLE6=Barbaric
TTITLE7=High and Dry
TTITLE8=My Sweet
TTITLE9=Star Dust
TTITLE10=Rockin' Chair
TTITLE11=Georgia On My Mind
TTITLE12=Hoagy Carmichael and His Orchestra  - One Night In Havana
TTITLE13=Bessie Couldn't Help It
TTITLE14=Lazy River
TTITLE15=Papa's Gone Bye-Bye Blues (Jewish Boy Blues)
TTITLE16=Star Dust
TTITLE17=March Of The Hoodlums
TTITLE18=Come Easy, Go Easy Love
TTITLE19=Mound City Blue Blowers  - Georgia On My Mind
TTITLE20=Lazy River
TTITLE21=Star Dust
TTITLE22=Mildred Bailey With Orchestral Accompaniment  - Georgia On My Mind
TTITLE23=Washboard Blues
EXTD=YEAR: 2004
EXTT0=
EXTT1=
EXTT2=
EXTT3=
EXTT4=
EXTT5=
EXTT6=
EXTT7=
EXTT8=
EXTT9=
EXTT10=
EXTT11=
EXTT12=
EXTT13=
EXTT14=
EXTT15=
EXTT16=
EXTT17=
EXTT18=
EXTT19=
EXTT20=
EXTT21=
EXTT22=
EXTT23=
PLAYORDER=
